<?xml version="1.0" encoding="UTF-8" standalone="no"?>
<svg
   width="1500"
   height="850"
   viewBox="0 0 1500 850"
   version="1.1"
   id="svg20"
   sodipodi:docname="world_risk_20_territories.svg"
   inkscape:version="1.4.2 (f4327f4, 2025-05-13)"
   xmlns:inkscape="http://www.inkscape.org/namespaces/inkscape"
   xmlns:sodipodi="http://sodipodi.sourceforge.net/DTD/sodipodi-0.dtd"
   xmlns="http://www.w3.org/2000/svg"
   xmlns:svg="http://www.w3.org/2000/svg">
  <defs
     id="defs20" />
  <sodipodi:namedview
     id="namedview20"
     pagecolor="#ffffff"
     bordercolor="#000000"
     borderopacity="0.25"
     inkscape:showpageshadow="2"
     inkscape:pageopacity="0.0"
     inkscape:pagecheckerboard="0"
     inkscape:deskcolor="#d1d1d1"
     inkscape:zoom="0.94941176"
     inkscape:cx="749.93804"
     inkscape:cy="425"
     inkscape:window-width="1920"
     inkscape:window-height="1009"
     inkscape:window-x="-8"
     inkscape:window-y="-8"
     inkscape:window-maximized="1"
     inkscape:current-layer="svg20" />
  <style
     id="style1">
  .na { fill:#90caf9; stroke:#263238; stroke-width:3; }
  .sa { fill:#a5d6a7; stroke:#263238; stroke-width:3; }
  .eu { fill:#ffe082; stroke:#263238; stroke-width:3; }
  .af { fill:#ffcc80; stroke:#263238; stroke-width:3; }
  .as { fill:#ce93d8; stroke:#263238; stroke-width:3; }
  .au { fill:#ef9a9a; stroke:#263238; stroke-width:3; }
  .label { font-family:Arial; font-size:16px; fill:#263238; pointer-events:none; }
</style>
  <!-- NORTH AMERICA (4) -->
  <polygon
     id="Alaska"
     class="na"
     points="60,80 240,70 280,160 170,200 80,150" />
  <text
     x="130"
     y="140"
     class="label"
     id="text1">Alaska</text>
  <polygon
     id="Canada"
     class="na"
     points="280,80 560,90 600,220 360,240 280,160" />
  <text
     x="410"
     y="170"
     class="label"
     id="text2">Canada</text>
  <polygon
     id="USA"
     class="na"
     points="300,260 600,240 620,360 420,400 300,330" />
  <text
     x="430"
     y="330"
     class="label"
     id="text3">USA</text>
  <polygon
     id="Mexico"
     class="na"
     points="320,420 520,410 540,520 360,540" />
  <text
     x="390"
     y="490"
     class="label"
     id="text4">Mexico</text>
  <!-- SOUTH AMERICA (3) -->
  <polygon
     id="Brazil"
     class="sa"
     points="540,540 700,520 740,660 620,720 520,650" />
  <text
     x="590"
     y="620"
     class="label"
     id="text5">Brazil</text>
  <polygon
     id="Peru"
     class="sa"
     points="500,720 640,700 660,820 520,830" />
  <text
     x="530"
     y="770"
     class="label"
     id="text6">Peru</text>
  <polygon
     id="Argentina"
     class="sa"
     points="660,720 820,700 840,840 700,840" />
  <text
     x="700"
     y="780"
     class="label"
     id="text7">Argentina</text>
  <!-- EUROPE (3) -->
  <polygon
     id="UK"
     class="eu"
     points="720,120 780,120 800,180 740,200" />
  <text
     x="735"
     y="165"
     class="label"
     id="text8">UK</text>
  <polygon
     id="WesternEurope"
     class="eu"
     points="800,160 960,160 1000,260 840,280" />
  <text
     x="840"
     y="230"
     class="label"
     id="text9">W. Europe</text>
  <polygon
     id="EasternEurope"
     class="eu"
     points="960,160 1120,180 1100,300 980,300" />
  <text
     x="990"
     y="240"
     class="label"
     id="text10">E. Europe</text>
  <!-- AFRICA (3) -->
  <polygon
     id="NorthAfrica"
     class="af"
     points="820,320 1040,320 1080,440 900,460" />
  <text
     x="900"
     y="400"
     class="label"
     id="text11">N. Africa</text>
  <polygon
     id="CentralAfrica"
     class="af"
     points="860,460 1040,460 1020,580 880,600" />
  <text
     x="900"
     y="530"
     class="label"
     id="text12">C. Africa</text>
  <polygon
     id="SouthAfrica"
     class="af"
     points="900,600 1040,620 1020,760 900,780" />
  <text
     x="930"
     y="700"
     class="label"
     id="text13">S. Africa</text>
  <!-- ASIA (4) -->
  <polygon
     id="MiddleEast"
     class="as"
     points="1080,260 1220,260 1260,360 1100,380" />
  <text
     x="1120"
     y="330"
     class="label"
     id="text14">Mid East</text>
  <polygon
     id="CentralAsia"
     class="as"
     points="1100,140 1260,150 1320,260 1160,260" />
  <text
     x="1160"
     y="210"
     class="label"
     id="text15">C. Asia</text>
  <polygon
     id="EastAsia"
     class="as"
     points="1260,160 1440,180 1460,300 1320,320" />
  <text
     x="1320"
     y="240"
     class="label"
     id="text16">E. Asia</text>
  <polygon
     id="SoutheastAsia"
     class="as"
     points="1240,320 1400,340 1380,460 1260,460" />
  <text
     x="1270"
     y="400"
     class="label"
     id="text17">SE Asia</text>
  <!-- AUSTRALIA (3) -->
  <polygon
     id="Indonesia"
     class="au"
     points="1180,500 1320,520 1300,600 1180,600" />
  <text
     x="1190"
     y="560"
     class="label"
     id="text18">Indonesia</text>
  <polygon
     id="NewGuinea"
     class="au"
     points="1440,540 1420,620 1320,620 1320,520 "
     transform="translate(0,1.0532838)" />
  <text
     x="1330"
     y="580"
     class="label"
     id="text19">New Guinea</text>
  <polygon
     id="Australia"
     class="au"
     points="1220,620 1420,650 1400,820 1240,820" />
  <text
     x="1280"
     y="740"
     class="label"
     id="text20">Australia</text>
</svg>
